# xmcd
# Track frame offsets:
# 150
# 15273
# 30745
# 44888
# 59700
# 74528
# 89483
# 103730
# 119548
# 133068
#
# Disc length: 1960 seconds
# Revision: 0
# Processed by: cddbd v1.4PL0 Copyright (c) Steve Scherf et al.
# Submitted via: VisiTrax 2.9.5.180 - For more info visit www.synapsa.com
#
DISCID=9707a60a
DTITLE=Josh Logan - Somebody paints the wall
DYEAR=1988
DGENRE=
TTITLE0=She don't love here anymore
TTITLE1=Somebody paints the wall
TTITLE2=I was born with a broken heart
TTITLE3=Danger soft shoulders
TTITLE4=Everytime i get to dreamin'
TTITLE5=Blue diamond
TTITLE6=I'd rather hear I don't love you (than nothing at all)
TTITLE7=The light of my life
TTITLE8=I've learned to lie
TTITLE9=Easy lovin' kind
EXTD=
EXTT0=
EXTT1=
EXTT2=
EXTT3=
EXTT4=
EXTT5=
EXTT6=
EXTT7=
EXTT8=
EXTT9=
PLAYORDER=
